<?xml version="1.0" standalone="no"?>
<!DOCTYPE svg PUBLIC "-//W3C//DTD SVG 20010904//EN"
 "http://www.w3.org/TR/2001/REC-SVG-20010904/DTD/svg10.dtd">
<svg version="1.0" xmlns="http://www.w3.org/2000/svg"
 width="700.000000pt" height="700.000000pt" viewBox="0 0 700.000000 700.000000"
 preserveAspectRatio="xMidYMid meet">
<metadata>
Created by potrace 1.11, written by Peter Selinger 2001-2013
</metadata>
<g transform="translate(0.000000,700.000000) scale(0.100000,-0.100000)"
fill="#000000" stroke="none">
<path d="M3290 6784 c-96 -35 -184 -69 -195 -74 -11 -5 -110 -43 -220 -83
-224 -82 -1218 -454 -1250 -468 -11 -5 -299 -112 -640 -239 -341 -126 -645
-242 -675 -257 -56 -29 -88 -69 -92 -115 -2 -24 -6 -26 -56 -27 -67 0 -123
-31 -146 -77 -13 -29 -16 -75 -16 -294 0 -157 4 -270 11 -287 12 -33 49 -70
82 -82 14 -6 1413 -9 3408 -10 3151 0 3386 2 3418 17 19 9 44 30 55 45 20 27
21 42 23 304 2 236 0 279 -13 306 -30 57 -65 75 -159 80 -35 2 -40 5 -45 32
-9 44 -26 71 -57 93 -23 15 -352 141 -828 317 -152 56 -1412 527 -1430 535
-11 4 -47 18 -80 30 -33 12 -69 26 -80 31 -119 51 -783 289 -808 289 -17 -1
-111 -30 -207 -66z"/>
<path d="M494 4462 l-30 -3 0 -1527 1 -1527 388 -1 387 -1 0 1529 0 1528 -32
1 c-171 2 -690 3 -714 1z"/>
<path d="M2258 4462 l-28 -3 0 -1528 0 -1528 389 0 388 0 0 1529 1 1528 -27 1
c-99 2 -701 3 -723 1z"/>
<path d="M3999 4430 c-3 -255 1 -3011 5 -3018 3 -5 165 -9 388 -8 l383 1 0
1528 c0 1012 -3 1527 -10 1528 -5 0 -180 1 -388 2 l-377 2 -1 -35z"/>
<path d="M5795 4460 l-30 -5 1 -1510 c1 -830 2 -1517 3 -1526 1 -14 40 -16
387 -15 l387 1 1 1528 1 1527 -30 1 c-150 3 -697 3 -720 -1z"/>
<path d="M105 1062 c-32 -7 -63 -32 -85 -67 -19 -31 -20 -49 -20 -379 0 -375
2 -387 55 -436 l27 -25 3401 -3 c3154 -2 3405 -1 3439 14 26 12 44 29 58 59
19 39 20 61 20 386 0 389 -1 395 -74 436 l-40 22 -3380 -1 c-1860 -1 -3390 -3
-3401 -6z"/>
</g>
</svg>
