<?xml version="1.0" standalone="no"?>
<!DOCTYPE svg PUBLIC "-//W3C//DTD SVG 20010904//EN"
 "http://www.w3.org/TR/2001/REC-SVG-20010904/DTD/svg10.dtd">
<svg version="1.0" xmlns="http://www.w3.org/2000/svg"
 width="100px" height="100px" viewBox="0 0 512.000000 512.000000"
 preserveAspectRatio="xMidYMid meet">
<metadata>
Created by potrace 1.15, written by Peter Selinger 2001-2017
</metadata>
<g transform="translate(0.000000,512.000000) scale(0.100000,-0.100000)"
fill="#DC143C" stroke="none">
<path d="M2425 4450 c-3 -6 -11 -7 -17 -4 -7 4 -8 2 -4 -4 9 -15 -62 -155 -74
-147 -6 4 -7 -1 -3 -11 4 -12 3 -15 -5 -10 -8 5 -10 1 -5 -10 4 -12 3 -15 -5
-10 -8 5 -10 1 -5 -10 5 -13 3 -15 -7 -9 -8 5 -11 4 -7 -3 9 -13 -2 -44 -13
-37 -4 2 -12 -7 -19 -21 -6 -15 -7 -23 -1 -19 6 4 5 -4 -1 -19 -7 -14 -15 -23
-19 -21 -4 2 -17 -15 -29 -38 -12 -23 -16 -34 -9 -24 35 50 36 46 3 -21 -20
-40 -40 -70 -45 -67 -6 4 -7 -1 -3 -11 4 -12 3 -15 -5 -10 -8 5 -10 1 -5 -10
4 -12 3 -15 -5 -10 -8 5 -10 1 -5 -10 4 -12 3 -15 -5 -10 -8 5 -10 1 -5 -10 4
-12 3 -15 -5 -10 -8 5 -10 1 -5 -10 4 -12 3 -15 -5 -10 -8 5 -10 1 -5 -10 4
-12 3 -15 -5 -10 -8 5 -10 1 -5 -10 4 -12 3 -15 -5 -10 -8 5 -10 1 -5 -10 5
-13 3 -15 -7 -9 -8 5 -11 4 -6 -3 9 -15 -72 -175 -84 -167 -6 4 -7 -1 -3 -11
4 -12 3 -15 -5 -10 -8 5 -10 1 -5 -10 5 -13 3 -15 -7 -9 -9 5 -11 4 -6 -3 13
-21 -22 -70 -54 -77 -38 -8 -38 -19 -1 -152 15 -56 24 -100 19 -97 -4 3 -8 13
-8 22 -1 10 -6 4 -14 -13 -7 -17 -20 -36 -29 -44 -16 -12 -16 0 -11 160 5 167
16 235 35 223 5 -3 6 2 3 10 -3 8 0 24 6 37 11 19 9 24 -8 38 -18 14 -22 30
-25 116 -7 158 -7 158 -87 184 l-68 22 -56 -25 c-49 -22 -56 -28 -56 -53 0
-16 -8 -34 -18 -42 -15 -11 -18 -26 -17 -98 2 -80 0 -86 -22 -96 -28 -13 -29
-22 -2 -93 19 -51 21 -68 14 -173 -4 -64 -8 -179 -8 -256 0 -86 -2 -126 -7
-105 -4 19 -8 27 -9 18 0 -10 -7 -18 -13 -18 -9 0 -8 -4 2 -11 12 -9 12 -10
-3 -5 -10 3 -24 6 -30 6 -7 0 -6 5 3 11 12 8 10 9 -7 4 -14 -4 -170 36 -418
106 -218 61 -398 109 -401 106 -3 -2 9 -28 25 -56 40 -68 62 -111 57 -111 -2
0 -26 39 -52 86 -48 86 -49 86 -57 55 -5 -20 -12 -29 -19 -25 -7 5 -8 3 -4 -5
9 -14 -13 -73 -24 -66 -4 3 -11 -2 -14 -11 -4 -10 -2 -13 6 -8 7 5 9 2 6 -7
-33 -82 -41 -98 -51 -92 -6 4 -7 1 -3 -6 10 -16 -13 -73 -27 -64 -6 3 -7 1 -3
-6 4 -6 4 -21 1 -32 -5 -15 -10 -18 -15 -9 -5 8 -9 5 -13 -9 -3 -12 -1 -19 4
-16 4 3 3 -8 -2 -25 -6 -17 -16 -27 -22 -23 -6 4 -7 1 -3 -6 9 -14 -13 -73
-24 -66 -4 3 -11 -2 -14 -11 -4 -10 -2 -13 6 -8 7 5 9 2 6 -7 -33 -82 -41 -98
-51 -92 -6 3 -7 1 -3 -6 10 -16 -64 -192 -77 -184 -6 3 -7 1 -3 -6 4 -6 4 -21
1 -32 -5 -15 -10 -18 -15 -9 -5 8 -9 5 -13 -9 -3 -12 -1 -18 4 -15 8 4 1 -17
-38 -113 -3 -7 -9 -11 -13 -8 -4 3 -11 -2 -14 -11 -3 -8 -2 -12 4 -9 6 4 6 -3
0 -20 -15 -40 -13 -44 26 -51 19 -4 38 -13 41 -20 3 -8 9 -14 15 -14 5 0 6 5
3 10 -4 7 3 8 22 4 15 -4 28 -7 29 -8 6 -11 -17 -241 -25 -249 -6 -6 -10 -38
-9 -71 l1 -61 8 60 c4 34 5 0 2 -79 -3 -93 -1 -141 6 -146 6 -3 -11 -12 -38
-19 -64 -16 -70 -38 -25 -82 29 -28 34 -40 36 -83 l2 -51 3 49 c4 45 1 52 -34
90 l-38 41 43 -40 c40 -37 42 -42 42 -95 0 -31 -3 -59 -6 -62 -5 -5 -9 -155
-12 -403 -2 -157 -15 -317 -23 -275 l-6 35 -2 -32 c-1 -23 5 -35 18 -43 26
-13 647 -14 656 0 4 7 23 574 25 757 0 34 9 39 100 57 14 3 126 30 249 61 124
30 234 57 245 59 12 2 66 16 121 29 55 14 111 28 125 31 14 3 71 17 128 31 56
13 112 27 125 30 12 3 87 21 167 41 136 34 149 36 210 25 36 -6 79 -13 95 -16
17 -3 55 -9 85 -15 30 -6 105 -19 165 -30 61 -11 124 -22 140 -26 34 -7 69
-13 105 -17 112 -16 289 -53 263 -55 l-33 -3 2 -477 3 -477 2 448 3 447 98 0
c53 0 114 3 135 6 24 5 37 3 37 -5 0 -6 -18 -11 -45 -11 l-45 0 2 -447 3 -448
45 -1 45 -2 -45 7 -45 6 70 8 c39 4 179 7 311 7 l241 0 6 36 c3 20 3 158 0
308 -3 149 -3 269 0 266 2 -3 8 -142 11 -310 l6 -305 368 -5 367 -5 -365 -5
-365 -5 373 -3 372 -2 0 74 c0 61 -47 1145 -64 1456 -2 53 -1 72 4 50 5 -24 8
-28 9 -12 0 12 7 22 14 22 9 0 9 2 -1 9 -10 6 -1 11 27 18 23 6 38 7 35 2 -3
-5 0 -9 5 -9 6 0 11 7 11 16 0 8 3 13 8 11 4 -3 7 8 7 23 0 15 -4 26 -9 22 -5
-3 -6 2 -3 12 4 9 3 15 -2 12 -12 -8 -55 90 -46 105 6 8 4 10 -5 4 -10 -6 -12
-4 -7 9 4 9 3 15 -2 12 -12 -8 -55 90 -46 105 6 8 4 10 -5 4 -10 -6 -12 -4 -7
9 4 9 3 15 -2 12 -12 -8 -55 90 -46 105 6 8 4 10 -5 4 -10 -6 -12 -4 -7 9 4 9
3 15 -2 12 -12 -8 -55 90 -46 105 6 8 4 10 -5 4 -10 -6 -12 -4 -7 9 4 9 3 15
-2 12 -12 -8 -55 90 -46 105 6 8 4 10 -5 4 -10 -6 -12 -4 -7 9 4 9 3 15 -2 12
-12 -8 -55 90 -46 105 6 8 4 10 -5 4 -10 -6 -12 -4 -7 9 4 9 3 15 -1 12 -13
-8 -66 110 -57 124 5 9 4 11 -3 6 -7 -4 -12 -3 -12 2 0 13 -39 52 -53 52 -8 0
-8 -3 2 -9 10 -7 8 -10 -10 -16 -13 -4 -207 -65 -430 -136 -223 -71 -411 -129
-417 -129 -7 0 -12 -6 -13 -12 0 -7 -11 12 -25 41 -13 30 -22 61 -19 69 2 7 1
11 -4 8 -12 -8 -35 50 -25 65 4 7 3 10 -3 6 -14 -9 -37 48 -27 64 4 7 3 10 -3
6 -14 -9 -37 48 -27 64 4 7 3 10 -3 6 -14 -9 -37 48 -27 64 5 8 3 9 -6 4 -10
-6 -12 -4 -6 11 4 10 4 15 0 11 -4 -4 -12 0 -19 9 -10 14 -32 9 -203 -43 -158
-48 -192 -61 -195 -78 -2 -11 -1 28 1 87 l5 107 -36 15 c-32 13 -43 29 -97
136 -34 67 -59 129 -56 137 4 9 2 11 -6 7 -8 -5 -9 -2 -5 10 5 11 3 15 -5 10
-8 -5 -9 -2 -5 10 5 11 3 15 -5 10 -8 -5 -9 -2 -5 10 5 11 3 15 -5 10 -8 -5
-9 -2 -5 10 5 11 3 15 -5 10 -8 -5 -9 -2 -5 10 5 11 3 15 -5 10 -8 -5 -9 -2
-5 10 5 11 3 15 -5 10 -8 -5 -9 -2 -5 10 5 11 3 15 -5 10 -8 -5 -9 -2 -5 10 5
11 3 15 -5 10 -8 -5 -9 -2 -5 10 5 11 3 15 -5 10 -8 -5 -9 -2 -5 10 5 11 3 15
-5 10 -8 -5 -9 -2 -5 10 5 11 3 15 -5 10 -8 -5 -9 -2 -5 10 5 11 3 15 -5 10
-8 -5 -9 -2 -5 10 4 9 3 15 -1 12 -13 -8 -146 269 -137 284 6 9 4 11 -5 5 -10
-6 -12 -4 -7 9 5 11 3 15 -5 10 -8 -5 -9 -2 -5 10 5 11 3 15 -5 10 -8 -5 -9
-2 -5 10 5 11 3 15 -5 10 -8 -5 -9 -1 -4 12 4 10 4 15 0 11 -4 -4 -13 -2 -20
4 -8 7 -14 7 -19 -1z m-9 -1070 l134 0 0 -199 0 -200 -140 -3 -140 -3 1 215
c0 118 3 209 6 203 3 -10 41 -13 139 -13z m325 -15 c19 -8 27 -14 19 -15 -13
0 -13 -1 0 -10 9 -6 17 -5 22 3 4 7 7 -55 7 -138 0 -82 2 -179 6 -215 5 -49 3
-61 -5 -47 -6 9 -19 17 -28 16 -14 0 -13 -2 3 -9 l20 -9 -20 0 c-21 -1 -47 12
-46 23 1 3 0 97 -1 209 l-2 202 -6 -215 -6 -215 -2 218 c-1 119 0 217 2 217 2
0 19 -7 37 -15z m-621 -200 c0 -161 -2 -205 -12 -205 -10 0 -10 -2 0 -9 10 -6
8 -10 -10 -14 -12 -4 -26 -7 -30 -7 -5 0 -9 82 -10 183 l-2 182 -6 -190 -6
-190 -2 211 -2 211 25 11 c19 9 25 9 25 -1 0 -6 5 -4 11 6 5 9 12 17 14 17 2
0 4 -92 5 -205z m296 -665 l134 0 0 -230 0 -230 -140 0 -140 0 1 243 c0 133 3
236 6 230 3 -10 41 -13 139 -13z m-278 -242 l-2 -243 -6 240 -5 240 -5 -239
-5 -240 -27 -7 -28 -7 -2 206 -2 207 -6 -210 -6 -210 1 239 c0 204 2 240 15
243 13 4 13 3 0 -6 -13 -9 -13 -11 3 -11 9 0 17 5 17 10 0 10 33 28 53 29 4 1
6 -108 5 -241z m648 215 c10 -11 13 -11 17 -1 3 7 6 -94 6 -225 1 -223 0 -238
-16 -233 -10 3 -31 8 -46 12 -21 5 -25 9 -15 15 10 6 10 9 1 9 -19 0 -19 430
0 430 8 0 7 4 -3 10 -11 8 -7 9 15 4 17 -3 35 -13 41 -21z m-1518 -245 c1 42
6 62 15 62 8 0 7 4 -3 10 -11 8 -7 9 15 4 70 -14 105 -25 104 -32 -1 -4 0 -20
1 -37 3 -28 3 -27 11 10 5 25 6 0 3 -69 -2 -60 -5 -161 -6 -225 l-2 -116 -6
120 -6 120 -2 -107 c-2 -95 -4 -108 -19 -109 -16 0 -15 -2 2 -10 21 -10 10 -9
-92 7 l-43 7 0 62 c0 34 3 138 8 231 6 151 8 161 13 89 l5 -80 2 63z m3257
-42 c0 -36 4 -66 8 -66 4 0 8 -28 8 -62 0 -35 3 -96 6 -137 3 -55 1 -76 -9
-82 -10 -7 -8 -9 6 -9 11 0 17 -2 14 -5 -3 -3 -19 -2 -36 1 -26 5 -32 12 -33
33 l-1 26 -8 -25 c-10 -30 -8 -47 -23 216 l-12 200 40 -11 40 -12 0 -67z
m-3675 43 c0 8 2 12 4 10 2 -2 0 -76 -5 -164 -5 -88 -9 -185 -10 -215 -1 -54
-1 -55 -9 -15 l-7 40 -2 -38 c-1 -30 -6 -39 -27 -47 -32 -13 -43 -13 -24 0 10
6 11 10 3 10 -8 0 -14 15 -15 38 -1 31 -2 28 -8 -18 -11 -86 -11 -10 0 194 6
116 13 183 21 190 9 8 10 8 5 -1 -4 -7 -3 -13 2 -13 6 0 12 7 16 15 3 8 10 15
16 15 6 0 8 -4 5 -10 -3 -5 -1 -10 4 -10 6 0 11 8 11 18 0 14 2 15 10 2 8 -12
10 -12 10 -1z m3748 -51 c2 25 26 55 36 45 3 -4 6 -16 7 -27 1 -18 2 -18 8 4
6 20 9 13 14 -35 12 -109 28 -378 22 -383 -3 -3 -6 12 -6 34 -1 23 -4 30 -6
17 -2 -13 -10 -23 -16 -23 -7 0 -6 -5 3 -11 12 -8 10 -9 -10 -5 -14 3 -30 6
-36 6 -7 0 -13 50 -18 143 -3 78 -8 178 -11 222 -3 60 -2 69 4 35 4 -25 9 -35
9 -22z m-3893 -15 c-4 -10 -6 -62 -5 -116 0 -53 -2 -102 -6 -108 -4 -7 -6 -48
-5 -93 l2 -81 -53 -15 -53 -16 8 171 c10 245 12 251 49 264 38 14 58 14 38 1
-10 -7 -11 -10 -2 -10 7 0 15 7 19 15 3 9 8 14 10 11 3 -3 2 -13 -2 -23z
m3160 -383 c-2 -4 9 -17 26 -29 16 -12 27 -26 24 -32 -4 -5 -2 -9 4 -9 5 0 45
-43 88 -96 l78 -96 0 -389 c0 -214 -3 -389 -8 -389 -4 0 -7 176 -7 391 1 215
-2 394 -6 398 -4 3 -4 -2 -1 -11 4 -10 5 -18 3 -18 -9 0 -144 189 -139 194 4
3 1 6 -5 6 -12 0 -92 100 -92 115 0 4 9 0 20 -10 11 -10 18 -21 15 -25z
m-3146 -540 c2 58 3 109 2 114 -1 5 4 4 13 -3 9 -8 16 -8 21 -2 3 6 37 10 75
10 l70 -1 2 -111 2 -112 6 115 c4 80 6 28 7 -172 l2 -288 -107 2 -107 2 105 6
105 6 -102 2 -103 2 -2 58 -2 57 -7 -65 c-4 -41 -5 -13 -3 75 2 77 5 205 6
285 l2 145 6 -115 6 -115 3 105z m-169 100 c-10 -6 -11 -10 -2 -10 7 0 13 -17
14 -47 l1 -48 8 60 c5 44 6 31 4 -50 -2 -60 -5 -189 -6 -285 l-3 -175 -6 140
-6 140 -2 -127 c-1 -95 -5 -128 -14 -128 -10 0 -10 -2 0 -9 16 -9 -54 -21
-129 -21 l-49 0 -2 68 -2 67 -6 -70 c-4 -40 -6 1 -3 95 5 232 14 379 23 356 6
-19 7 -19 12 1 6 22 64 38 72 19 3 -7 8 -6 14 2 5 8 25 18 43 22 48 11 56 11
39 0z m3809 -27 c1 29 12 32 71 21 22 -5 28 -9 18 -15 -9 -6 -6 -9 10 -9 13 0
20 4 17 10 -7 12 -3 12 19 4 9 -3 13 -10 10 -15 -3 -5 4 -9 16 -9 12 0 18 5
15 10 -3 6 -1 10 4 10 7 0 12 -26 13 -62 l1 -63 7 60 7 60 1 -75 c0 -41 2 -82
5 -90 3 -8 8 -89 10 -180 3 -91 1 -140 -3 -110 l-7 55 -3 -45 c-1 -25 -2 -48
-2 -51 1 -7 -127 -1 -165 7 -18 3 -23 12 -24 37 l-2 32 -6 -35 c-5 -23 -10 11
-14 105 -13 253 -16 391 -8 355 8 -32 8 -33 10 -7z"/>
<path d="M1785 1629 c-324 -82 -598 -147 -608 -145 -9 2 -15 1 -12 -3 6 -11
-102 -34 -116 -25 -8 5 -9 3 -4 -5 5 -9 0 -12 -19 -9 l-27 3 1 -389 c0 -214 3
-393 6 -397 3 -5 15 -9 27 -8 20 1 20 2 -3 9 l-25 8 28 1 27 1 0 284 c0 157 3
287 8 289 4 3 6 -126 4 -286 -1 -160 0 -289 2 -286 3 3 6 137 6 299 1 275 2
295 21 318 10 14 19 20 19 15 0 -5 -3 -13 -8 -19 -4 -5 4 2 17 16 13 14 20 19
17 13 -5 -8 -1 -13 9 -13 9 0 14 4 11 9 -3 5 1 11 9 15 8 3 15 1 15 -4 0 -6 5
-10 11 -10 5 0 8 4 5 9 -3 5 12 13 34 19 22 5 37 6 34 1 -3 -5 2 -9 11 -9 9 0
13 4 10 10 -3 5 4 12 17 15 156 34 161 35 174 24 8 -6 14 -8 14 -3 0 4 11 -3
25 -16 l25 -23 -2 -336 -3 -336 -2 336 c-3 334 -3 336 -26 355 -22 19 -22 19
-4 -2 15 -19 17 -51 17 -352 0 -317 1 -332 19 -342 11 -5 30 -9 43 -9 19 1 18
3 -7 9 l-30 8 30 1 31 1 -4 158 c-3 113 0 182 12 247 19 113 54 227 66 220 6
-3 7 1 4 9 -7 18 24 79 36 71 6 -3 7 1 4 9 -4 10 17 38 58 79 63 65 146 108
201 106 21 -1 21 -1 -3 -9 -19 -6 -12 -8 30 -8 42 0 49 2 30 8 -14 4 -18 8 -9
9 22 1 80 -20 75 -27 -2 -4 18 -22 43 -40 l46 -33 -40 38 c-22 20 -29 30 -15
21 35 -21 92 -98 86 -115 -4 -9 -1 -11 6 -7 8 5 9 2 5 -10 -4 -9 -3 -15 2 -12
17 11 78 -181 67 -210 -3 -7 0 -14 6 -16 8 -3 13 -52 15 -144 2 -76 5 -148 8
-159 2 -11 4 -57 4 -102 l1 -83 40 0 40 0 0 143 c1 195 16 445 30 487 23 69
32 90 39 85 4 -2 7 6 7 18 -1 12 4 21 11 20 7 -2 10 3 7 10 -2 7 8 26 23 43
16 16 21 22 13 11 -9 -11 6 -5 36 15 28 18 50 35 48 37 -2 2 -16 -4 -31 -14
-22 -15 -25 -15 -15 -2 18 21 98 47 141 46 l36 -2 -40 -7 c-35 -6 -32 -7 25
-8 46 0 58 2 40 8 -23 7 -23 8 -4 9 29 1 151 -37 159 -49 4 -6 -2 -7 -12 -3
-22 8 -17 2 22 -22 29 -18 30 -18 15 0 -13 17 -11 17 15 -2 17 -11 39 -31 50
-44 13 -16 8 -14 -14 6 l-34 30 38 -47 c22 -27 41 -48 43 -48 3 0 -2 8 -9 17
-10 12 -10 14 -1 9 6 -4 19 -21 28 -38 9 -16 11 -27 5 -24 -7 4 -8 1 -5 -8 3
-9 10 -14 14 -11 4 3 11 -2 14 -11 3 -8 2 -13 -3 -10 -5 4 -7 -3 -4 -15 3 -12
9 -16 12 -10 12 19 35 -62 34 -119 0 -37 2 -47 7 -30 6 23 7 21 11 -13 3 -21
1 -40 -3 -43 -12 -8 -10 -272 3 -279 6 -4 9 -33 8 -69 l-3 -61 37 -3 37 -3 2
479 c2 264 0 478 -4 476 -4 -3 -201 31 -437 76 -237 44 -434 80 -438 79 -5 0
-273 -68 -598 -150z"/>
<path d="M3290 1116 c0 -239 2 -440 5 -448 4 -9 24 -12 75 -10 l70 4 0 444 0
444 -75 0 -75 0 0 -434z"/>
</g>
</svg>
